<svg width="73" height="73" viewBox="0 0 73 73" fill="none" xmlns="http://www.w3.org/2000/svg">
<path d="M13.4635 62.0523L8.33984 4.5625H64.6593L59.5288 62.0432L36.4654 68.4375L13.4635 62.0523Z" fill="#1572B6"/>
<path d="M36.5 63.5511L55.1378 58.384L59.5224 9.26416H36.5V63.5511Z" fill="#33A9DC"/>
<path d="M36.5 30.092H45.8303L46.4736 22.8718H36.5V15.8205H54.1797L54.0109 17.7116L52.2794 37.1433H36.5V30.092Z" fill="white"/>
<path d="M36.5427 48.4036L36.5108 48.4127L28.6587 46.2911L28.1568 40.6678H21.0781L22.0659 51.7388L36.5085 55.7492L36.5427 55.7401V48.4036Z" fill="#EBEBEB"/>
<path d="M45.2297 36.8445L44.381 46.2866L36.5176 48.4081V55.7446L50.9716 51.7388L51.0788 50.5479L52.3038 36.8445H45.2297Z" fill="white"/>
<path d="M36.525 15.8205V22.8718H19.4932L19.3518 21.2863L19.0301 17.7116L18.8613 15.8205H36.525ZM36.5 30.092V37.1433H28.746L28.6045 35.5578L28.2852 31.9831L28.1164 30.092H36.5Z" fill="#EBEBEB"/>
</svg>
