<svg width="123" height="76" viewBox="0 0 123 76" fill="none" xmlns="http://www.w3.org/2000/svg">
<g clip-path="url(#clip0_250_283)">
<path d="M60.8049 75.7807C60.3886 75.7807 59.9999 75.6689 59.6388 75.4731L55.9462 73.2633C55.3907 72.9554 55.6684 72.8436 55.8352 72.7877C56.5847 72.5359 56.7236 72.4798 57.501 72.0325C57.5843 71.9764 57.6955 72.0044 57.7787 72.0603L60.6108 73.7667C60.7218 73.8226 60.8606 73.8226 60.9438 73.7667L72.0222 67.3048C72.1331 67.2489 72.1889 67.1368 72.1889 66.9971V54.1013C72.1889 53.9612 72.1331 53.8496 72.0222 53.7935L60.9438 47.3596C60.8328 47.3035 60.6939 47.3035 60.6108 47.3596L49.5324 53.7935C49.4214 53.8494 49.3657 53.9893 49.3657 54.1011V66.9969C49.3657 67.109 49.4214 67.2486 49.5324 67.3048L52.5589 69.067C54.197 69.9062 55.2243 68.9272 55.2243 67.9481V55.22C55.2243 55.0523 55.3631 54.8843 55.5575 54.8843H56.9734C57.1401 54.8843 57.3066 55.0242 57.3066 55.22V67.9481C57.3066 70.1579 56.1126 71.4448 54.0303 71.4448C53.3917 71.4448 52.8921 71.4448 51.4759 70.7453L48.5606 69.067C47.8387 68.6476 47.3945 67.8641 47.3945 67.025V54.1292C47.3945 53.29 47.8387 52.5066 48.5606 52.0871L59.6388 45.6252C60.3331 45.2335 61.2772 45.2335 61.9712 45.6252L73.0494 52.0871C73.7713 52.5066 74.2157 53.29 74.2157 54.1292V67.025C74.2157 67.8641 73.7713 68.6476 73.0494 69.067L61.9712 75.529C61.6102 75.697 61.1936 75.7807 60.8049 75.7807ZM64.2201 66.9132C59.3613 66.9132 58.3617 64.6753 58.3617 62.7731C58.3617 62.6051 58.5006 62.4374 58.6949 62.4374H60.1387C60.3052 62.4374 60.4441 62.5492 60.4441 62.7172C60.6663 64.1997 61.3048 64.927 64.2479 64.927C66.5801 64.927 67.58 64.3955 67.58 63.1366C67.58 62.4093 67.302 61.878 63.6649 61.5142C60.6384 61.2064 58.7504 60.5352 58.7504 58.1015C58.7504 55.8355 60.6386 54.4927 63.8037 54.4927C67.3575 54.4927 69.1069 55.7237 69.3291 58.4089C69.3291 58.4931 69.3013 58.5769 69.2458 58.6609C69.19 58.7168 69.1069 58.7727 69.0236 58.7727H67.5797C67.4409 58.7727 67.302 58.6609 67.2744 58.521C66.9412 56.9826 66.0804 56.4789 63.8037 56.4789C61.2493 56.4789 60.9438 57.3742 60.9438 58.0454C60.9438 58.8567 61.3048 59.1084 64.7476 59.5559C68.1628 60.0037 69.7733 60.647 69.7733 63.0526C69.7455 65.5144 67.7465 66.9132 64.2201 66.9132Z" fill="#539E43"/>
<path d="M26.4317 25.3443C26.4317 24.8409 26.154 24.365 25.7098 24.1133L13.9374 17.2878C13.7428 17.1758 13.5208 17.1198 13.2988 17.0918H13.1876C12.9656 17.0918 12.7434 17.1758 12.549 17.2878L0.776592 24.1133C0.332158 24.365 0.0546875 24.8406 0.0546875 25.3443L0.0825547 43.6949C0.0825547 43.9466 0.22141 44.1984 0.443387 44.3104C0.665603 44.4503 0.943074 44.4503 1.13766 44.3104L8.13449 40.2822C8.57868 40.0305 8.85639 39.5548 8.85639 39.0514V30.4634C8.85639 29.96 9.13387 29.4844 9.5783 29.2326L12.549 27.4982C12.7713 27.3583 13.0211 27.3022 13.2709 27.3022C13.5208 27.3022 13.7706 27.3583 13.9652 27.4982L16.936 29.2326C17.3804 29.4844 17.6579 29.9597 17.6579 30.4634V39.0514C17.6579 39.5548 17.9356 40.0305 18.3798 40.2822L25.3766 44.3104C25.4847 44.379 25.6098 44.4154 25.7375 44.4154C25.8653 44.4154 25.9904 44.379 26.0985 44.3104C26.3207 44.1984 26.4596 43.9466 26.4596 43.6949L26.4317 25.3443ZM83.0172 0.0839867C82.7952 -0.028077 82.5175 -0.028077 82.3229 0.0839867C82.101 0.223885 81.9621 0.447528 81.9621 0.699248V18.8824C81.9621 19.0501 81.879 19.2178 81.7123 19.3299C81.5458 19.4136 81.3791 19.4136 81.2126 19.3299L78.2695 17.6235C78.0537 17.4998 77.8097 17.4347 77.5614 17.4347C77.3131 17.4347 77.0691 17.4998 76.8533 17.6235L65.0808 24.4771C64.6367 24.7288 64.3589 25.2044 64.3589 25.7078V39.3869C64.3589 39.8903 64.6367 40.3662 65.0808 40.6179L76.8533 47.4714C77.0691 47.5952 77.3131 47.6603 77.5614 47.6603C77.8097 47.6603 78.0537 47.5952 78.2695 47.4714L90.0419 40.6179C90.4861 40.3662 90.7638 39.8906 90.7638 39.3869V5.28708C90.7638 4.75557 90.4861 4.2802 90.0419 4.02824L83.0172 0.0839867ZM81.9345 34.8833C81.9345 35.0232 81.879 35.135 81.7678 35.1909L77.7419 37.5406C77.6857 37.5682 77.6239 37.5826 77.5614 37.5826C77.4988 37.5826 77.4371 37.5682 77.3809 37.5406L73.355 35.1909C73.2438 35.135 73.1883 34.9951 73.1883 34.8833V30.1836C73.1883 30.0437 73.2438 29.9319 73.355 29.876L77.3809 27.526C77.4371 27.4984 77.4988 27.484 77.5614 27.484C77.6239 27.484 77.6857 27.4984 77.7419 27.526L81.7678 29.876C81.879 29.9317 81.9345 30.0718 81.9345 30.1836V34.8833ZM122.194 30.0718C122.638 29.8201 122.888 29.3445 122.888 28.8408V25.512C122.888 25.0086 122.61 24.533 122.194 24.2813L110.505 17.4558C110.289 17.332 110.045 17.2669 109.797 17.2669C109.548 17.2669 109.304 17.332 109.089 17.4558L97.3162 24.3091C96.8718 24.5608 96.5943 25.0364 96.5943 25.5399V39.2191C96.5943 39.7226 96.872 40.1982 97.3162 40.4499L109.005 47.1636C109.45 47.4153 109.977 47.4153 110.394 47.1636L117.474 43.1917C117.696 43.0796 117.835 42.8279 117.835 42.5762C117.835 42.3245 117.696 42.0728 117.474 41.9607L105.646 35.1072C105.424 34.9673 105.285 34.7436 105.285 34.4919V30.2119C105.285 29.9602 105.424 29.7085 105.646 29.5964L109.339 27.4704C109.447 27.4018 109.572 27.3655 109.699 27.3655C109.827 27.3655 109.952 27.4018 110.06 27.4704L113.753 29.5964C113.976 29.7363 114.114 29.96 114.114 30.2119V33.5688C114.114 33.8205 114.253 34.0722 114.475 34.184C114.583 34.2526 114.708 34.289 114.836 34.289C114.964 34.289 115.089 34.2526 115.197 34.184L122.194 30.0718Z" fill="#333333"/>
<path d="M109.616 29.4282C109.657 29.4008 109.706 29.3862 109.755 29.3862C109.804 29.3862 109.853 29.4008 109.894 29.4282L112.143 30.743C112.226 30.7991 112.282 30.8829 112.282 30.9947V33.6244C112.282 33.7362 112.226 33.8202 112.143 33.8761L109.894 35.1909C109.853 35.2183 109.804 35.2329 109.755 35.2329C109.706 35.2329 109.657 35.2183 109.616 35.1909L107.367 33.8761C107.284 33.8202 107.229 33.7362 107.229 33.6244V30.9949C107.229 30.8829 107.284 30.7989 107.367 30.7432L109.616 29.4282Z" fill="#539E43"/>
<path d="M46.1177 17.5117C45.9019 17.388 45.6579 17.3229 45.4097 17.3229C45.1614 17.3229 44.9175 17.388 44.7017 17.5117L33.0126 24.3089C32.5682 24.5606 32.3184 25.0362 32.3184 25.5396V39.163C32.3184 39.6664 32.5961 40.142 33.0126 40.3938L44.7017 47.1914C44.9175 47.3151 45.1614 47.3802 45.4097 47.3802C45.6579 47.3802 45.9019 47.3151 46.1177 47.1914L57.807 40.3938C58.2512 40.142 58.5013 39.6664 58.5013 39.163V25.5399C58.5013 25.0364 58.2233 24.5608 57.807 24.3091L46.1177 17.5117Z" fill="url(#paint0_linear_250_283)"/>
</g>
<defs>
<linearGradient id="paint0_linear_250_283" x1="50.172" y1="22.579" x2="37.2227" y2="42.7745" gradientUnits="userSpaceOnUse">
<stop stop-color="#41873F"/>
<stop offset="0.3288" stop-color="#418B3D"/>
<stop offset="0.6352" stop-color="#419637"/>
<stop offset="0.9319" stop-color="#3FA92D"/>
<stop offset="1" stop-color="#3FAE2A"/>
</linearGradient>
<clipPath id="clip0_250_283">
<rect width="123" height="76" fill="white"/>
</clipPath>
</defs>
</svg>
