<svg width="73" height="73" viewBox="0 0 73 73" fill="none" xmlns="http://www.w3.org/2000/svg">
<g clip-path="url(#clip0_250_217)">
<path d="M55.8906 0H17.1094C7.66013 0 0 7.66013 0 17.1094V55.8906C0 65.3399 7.66013 73 17.1094 73H55.8906C65.3399 73 73 65.3399 73 55.8906V17.1094C73 7.66013 65.3399 0 55.8906 0Z" fill="#242938"/>
<path d="M36.4996 41.904C39.4378 41.904 41.8194 39.5221 41.8194 36.5841C41.8194 33.6462 39.4378 31.2643 36.4996 31.2643C33.5616 31.2643 31.1797 33.6462 31.1797 36.5841C31.1797 39.5221 33.5616 41.904 36.4996 41.904Z" fill="#00D8FF"/>
<path d="M36.5006 25.7676C43.6432 25.7676 50.2785 26.7924 55.2815 28.5151C61.3094 30.5901 65.0156 33.7357 65.0156 36.5841C65.0156 39.5523 61.0879 42.8941 54.6145 45.0387C49.7207 46.6601 43.2807 47.5065 36.5006 47.5065C29.549 47.5065 22.9662 46.712 18.017 45.0208C11.7556 42.8807 7.98438 39.4959 7.98438 36.5841C7.98438 33.7588 11.5232 30.6375 17.4664 28.5655C22.488 26.8147 29.287 25.7676 36.4994 25.7676H36.5006Z" stroke="#00D8FF" stroke-width="2.5"/>
<path d="M27.0846 31.2069C30.6531 25.0196 34.8554 19.7836 38.847 16.3104C43.6559 12.1251 48.2327 10.486 50.6998 11.9087C53.2711 13.3915 54.2038 18.4639 52.828 25.1428C51.7886 30.1921 49.3037 36.1935 45.9163 42.0671C42.4434 48.089 38.4669 53.3946 34.5298 56.8359C29.5478 61.1908 24.7312 62.7669 22.209 61.3123C19.7615 59.9019 18.8256 55.2764 19.9999 49.0928C20.992 43.8679 23.4817 37.455 27.0835 31.2069H27.0846Z" stroke="#00D8FF" stroke-width="2.5"/>
<path d="M27.0923 42.0828C23.5139 35.9023 21.0775 29.6454 20.0606 24.4527C18.8365 18.1961 19.7019 13.4126 22.1671 11.9857C24.7361 10.4983 29.596 12.2235 34.6951 16.7512C38.5505 20.1742 42.5093 25.3233 45.9063 31.1912C49.3892 37.2075 51.9996 43.3027 53.015 48.4321C54.2999 54.9234 53.2599 59.8831 50.74 61.3417C48.2951 62.7572 43.8207 61.2587 39.0498 57.153C35.0188 53.6844 30.7061 48.3249 27.0923 42.0828Z" stroke="#00D8FF" stroke-width="2.5"/>
</g>
<defs>
<clipPath id="clip0_250_217">
<rect width="73" height="73" fill="white"/>
</clipPath>
</defs>
</svg>
