<svg width="73" height="73" viewBox="0 0 73 73" fill="none" xmlns="http://www.w3.org/2000/svg">
<path d="M13.4639 62.0523L8.33789 4.5625H64.6619L59.5291 62.0432L36.4657 68.4375L13.4639 62.0523Z" fill="#E44F26"/>
<path d="M36.5 63.5511L55.1378 58.384L59.5224 9.26416H36.5V63.5511Z" fill="#F1662A"/>
<path d="M36.5 30.5847H27.1697L26.5264 23.3646H36.5V16.3132H18.8203L18.9891 18.2067L20.7206 37.6361H36.5V30.5847ZM36.5 48.8963L36.4681 48.9054L28.616 46.7862L28.1141 41.1629H21.0354L22.0232 52.2315L36.4681 56.2419L36.5 56.2328V48.8963Z" fill="#EBEBEB"/>
<path d="M36.4746 30.5847V37.6361H45.157L44.3404 46.7816L36.4746 48.9032V56.2397L50.9309 52.2315L51.0358 51.0407L52.692 32.4782L52.8654 30.5847H36.4746ZM36.4746 16.3132V23.3646H53.5064L53.6479 21.7814L53.9695 18.2067L54.1383 16.3132H36.4746Z" fill="white"/>
</svg>
