<svg width="86" height="85" viewBox="0 0 86 85" fill="none" xmlns="http://www.w3.org/2000/svg">
<g clip-path="url(#clip0_250_211)">
<path d="M0.5 0H85.5V85H0.5V0Z" fill="#F7DF1E"/>
<path d="M22.8499 71.0321L29.3544 67.0956C30.6095 69.3205 31.751 71.2031 34.4893 71.2031C37.114 71.2031 38.7692 70.1765 38.7692 66.1828V39.0233H46.7569V66.2957C46.7569 74.5689 41.9072 78.3348 34.8316 78.3348C28.4417 78.3348 24.7326 75.0254 22.8496 71.0314M51.0955 70.1761L57.5993 66.4106C59.3116 69.2066 61.5369 71.2605 65.4735 71.2605C68.7835 71.2605 70.8939 69.6057 70.8939 67.3233C70.8939 64.5847 68.7257 63.6145 65.074 62.0175L63.0775 61.1608C57.3145 58.7081 53.4918 55.6269 53.4918 49.1224C53.4918 43.1312 58.0562 38.5664 65.1886 38.5664C70.2667 38.5664 73.9183 40.3355 76.5427 44.957L70.3231 48.9514C68.9535 46.498 67.4706 45.5281 65.1882 45.5281C62.8488 45.5281 61.3652 47.0116 61.3652 48.9514C61.3652 51.3476 62.8488 52.3182 66.272 53.8017L68.2688 54.6573C75.0589 57.5676 78.8815 60.5343 78.8815 67.2094C78.8815 74.3992 73.233 78.3358 65.6445 78.3358C58.2272 78.3358 53.4343 74.7983 51.0952 70.1765" fill="black"/>
</g>
<defs>
<clipPath id="clip0_250_211">
<rect width="85" height="85" fill="white" transform="translate(0.5)"/>
</clipPath>
</defs>
</svg>
