<svg width="125" height="36" viewBox="0 0 125 36" fill="none" xmlns="http://www.w3.org/2000/svg">
<path d="M0.813477 27.9372V14.17H18.1826V13.3647H0.813477V0.805047H19.2808V0H0V28.7423H19.4434V27.9372H0.813477ZM35.1042 8.05095L27.9045 17.4305L20.8672 8.0512H19.8096L27.4163 18.0346L19.0771 28.742H20.0535L27.9041 18.6379L35.7954 28.742H36.8123L28.4329 18.0341L36.0801 8.05071H35.104L35.1042 8.05095ZM39.2532 35.8273V22.9458H39.3345C39.8228 24.8243 40.7854 26.3339 42.2227 27.4745C43.6599 28.6149 45.4902 29.1854 47.7139 29.1854C49.1511 29.1854 50.4258 28.8969 51.5376 28.3199C52.6494 27.743 53.5781 26.958 54.324 25.9649C55.0696 24.9719 55.6392 23.818 56.0325 22.5029C56.4255 21.1881 56.6223 19.8058 56.6223 18.3569C56.6223 16.8002 56.4187 15.3643 56.012 14.0494C55.6052 12.7343 55.0154 11.5937 54.2427 10.6277C53.4697 9.66153 52.5342 8.90988 51.4358 8.3735C50.3376 7.83665 49.0969 7.56821 47.7139 7.56821C46.6562 7.56821 45.6733 7.7226 44.7649 8.03114C43.8564 8.33992 43.0498 8.77579 42.3447 9.33946C41.6355 9.90747 41.0182 10.5794 40.5142 11.332C39.999 12.097 39.6057 12.9356 39.3345 13.8482H39.2532V8.05095H38.4397V35.8273H39.2532ZM47.7139 28.4202C45.165 28.4202 43.1174 27.5547 41.5718 25.8238C40.0261 24.0929 39.2532 21.6036 39.2532 18.3564C39.2532 17.0145 39.4431 15.7397 39.8228 14.5322C40.2024 13.3246 40.7515 12.2644 41.47 11.3521C42.1887 10.4395 43.0769 9.71493 44.1343 9.17831C45.1919 8.64145 46.3853 8.37302 47.7139 8.37302C49.0698 8.37302 50.2563 8.64145 51.2732 9.17831C52.29 9.71493 53.1309 10.4463 53.7952 11.3721C54.4595 12.298 54.9612 13.3582 55.3003 14.5522C55.6392 15.7465 55.8086 17.0145 55.8086 18.3564C55.8086 19.5642 55.6528 20.7652 55.3408 21.9593C55.0291 23.1536 54.5476 24.227 53.8967 25.1799C53.2461 26.1324 52.4124 26.9106 51.3953 27.5146C50.3782 28.1184 49.1511 28.4202 47.7139 28.4202ZM61.0967 28.7423V17.028C61.0967 15.9009 61.2593 14.8003 61.585 13.7271C61.9102 12.6536 62.4119 11.7075 63.0898 10.8892C63.7678 10.0706 64.6287 9.42644 65.6729 8.95675C66.7168 8.48706 67.9575 8.29256 69.3948 8.37302V7.56797C68.1472 7.5414 67.0559 7.67525 66.1204 7.9705C65.1846 8.26575 64.3779 8.66827 63.7 9.17831C63.022 9.68811 62.4797 10.2851 62.073 10.9696C61.6666 11.653 61.3649 12.3923 61.178 13.1634H61.0967V8.05095H60.2832V28.7425L61.0967 28.7423ZM70.4116 18.5576H87.9026C87.957 17.1353 87.8147 15.7668 87.4756 14.4517C87.1367 13.1366 86.5942 11.9692 85.8486 10.9496C85.1028 9.92972 84.1401 9.11114 82.9604 8.49383C81.7808 7.87651 80.3774 7.56797 78.7505 7.56797C77.5842 7.56797 76.4453 7.80958 75.3335 8.29281C74.2217 8.77579 73.2454 9.48008 72.4048 10.4059C71.5642 11.3318 70.8862 12.4657 70.3711 13.8078C69.856 15.1495 69.5981 16.6791 69.5981 18.3967C69.5981 19.9264 69.7744 21.3555 70.127 22.6839C70.4795 24.0122 71.0217 25.1664 71.7539 26.1459C72.4863 27.1254 73.4287 27.8836 74.5811 28.4202C75.7334 28.957 77.1233 29.2119 78.7505 29.1851C81.1367 29.1851 83.1436 28.5207 84.7705 27.1926C86.3977 25.8639 87.3604 23.9922 87.6587 21.5768H86.8452C86.4927 23.8581 85.5908 25.5689 84.1401 26.7093C82.6892 27.85 80.8657 28.4202 78.6689 28.4202C77.1775 28.4202 75.9165 28.1653 74.886 27.6555C73.8557 27.1457 73.0149 26.4477 72.364 25.5622C71.7134 24.6764 71.2319 23.6365 70.9202 22.4423C70.6082 21.2482 70.4387 19.9532 70.4116 18.5576ZM87.0891 17.7526H70.4119C70.4929 16.3034 70.7642 15.0019 71.2251 13.8479C71.6863 12.6937 72.2896 11.7075 73.0354 10.8892C73.781 10.0706 74.6489 9.44674 75.6387 9.01715C76.6284 8.58781 77.6929 8.37302 78.8318 8.37302C80.1877 8.37302 81.3806 8.6214 82.4114 9.11791C83.4417 9.61442 84.3027 10.2921 84.9944 11.1508C85.6858 12.0095 86.2078 13.0093 86.5603 14.1497C86.9128 15.2903 87.0891 16.4914 87.0891 17.7526ZM104.784 14.17H105.597C105.597 11.8619 104.919 10.1846 103.563 9.13796C102.207 8.0913 100.363 7.56797 98.0312 7.56797C96.7295 7.56797 95.6313 7.72913 94.7363 8.0512C93.8416 8.37302 93.1094 8.78907 92.5398 9.29887C91.9705 9.80867 91.5637 10.3723 91.3196 10.9897C91.0754 11.607 90.9534 12.1975 90.9534 12.7609C90.9534 13.888 91.1567 14.7871 91.5637 15.458C91.9705 16.129 92.6077 16.6523 93.4753 17.028C94.072 17.2962 94.7498 17.5378 95.5093 17.7528C96.2686 17.9674 97.1499 18.1955 98.1533 18.4368C99.0481 18.6519 99.9294 18.8664 100.797 19.081C101.665 19.2958 102.431 19.5842 103.095 19.9464C103.76 20.3088 104.302 20.7718 104.723 21.3354C105.143 21.8989 105.353 22.637 105.353 23.5493C105.353 24.4351 105.143 25.1865 104.723 25.8035C104.306 26.4176 103.757 26.9332 103.116 27.3134C102.465 27.7024 101.74 27.9841 100.94 28.1585C100.14 28.333 99.3601 28.4202 98.6008 28.4202C96.1331 28.4202 94.2415 27.8768 92.9263 26.79C91.6111 25.703 90.9536 23.9922 90.9536 21.6573H90.1399C90.1399 24.2606 90.8518 26.166 92.2754 27.3738C93.6992 28.5813 95.8076 29.1851 98.6008 29.1851C99.4956 29.1851 100.397 29.0844 101.306 28.8831C102.214 28.6819 103.028 28.3533 103.746 27.8969C104.459 27.4469 105.057 26.841 105.495 26.1259C105.943 25.401 106.167 24.5155 106.167 23.4689C106.167 22.4758 105.97 21.6708 105.577 21.0535C105.184 20.4364 104.668 19.9264 104.031 19.5238C103.394 19.1213 102.675 18.806 101.875 18.5779C101.071 18.3485 100.264 18.127 99.4548 17.9135C98.4592 17.655 97.4626 17.4001 96.4651 17.1488C95.6111 16.934 94.8179 16.6791 94.0857 16.3839C93.3806 16.0886 92.8179 15.666 92.3975 15.1159C91.9771 14.5657 91.7671 13.7808 91.7671 12.7609C91.7671 12.5732 91.8213 12.2376 91.9297 11.7546C92.0381 11.2714 92.2959 10.7816 92.7026 10.2851C93.1094 9.78886 93.7329 9.34599 94.5737 8.95675C95.4143 8.56776 96.5669 8.37302 98.0312 8.37302C99.0347 8.37302 99.9497 8.48054 100.777 8.69509C101.604 8.90988 102.316 9.252 102.912 9.72169C103.509 10.1914 103.97 10.7884 104.295 11.513C104.621 12.2378 104.784 13.1233 104.784 14.17ZM123.617 14.17H124.43C124.43 11.8619 123.753 10.1846 122.397 9.13796C121.041 8.0913 119.197 7.56797 116.865 7.56797C115.563 7.56797 114.465 7.72913 113.57 8.0512C112.675 8.37302 111.943 8.78907 111.373 9.29887C110.804 9.80867 110.397 10.3723 110.153 10.9897C109.909 11.607 109.787 12.1975 109.787 12.7609C109.787 13.888 109.99 14.7871 110.397 15.458C110.804 16.129 111.441 16.6523 112.309 17.028C112.906 17.2962 113.583 17.5378 114.343 17.7528C115.102 17.9674 115.983 18.1955 116.987 18.4368C117.882 18.6519 118.763 18.8664 119.631 19.081C120.499 19.2958 121.264 19.5842 121.929 19.9464C122.593 20.3088 123.136 20.7718 123.556 21.3354C123.976 21.8989 124.187 22.637 124.187 23.5493C124.187 24.4351 123.976 25.1865 123.556 25.8035C123.139 26.4176 122.591 26.9331 121.949 27.3134C121.298 27.7024 120.573 27.9841 119.773 28.1585C118.973 28.333 118.193 28.4202 117.434 28.4202C114.966 28.4202 113.075 27.8768 111.76 26.79C110.444 25.703 109.787 23.9922 109.787 21.6573H108.973C108.973 24.2606 109.685 26.166 111.109 27.3738C112.532 28.5813 114.641 29.1851 117.434 29.1851C118.329 29.1851 119.231 29.0844 120.139 28.8831C121.047 28.6819 121.861 28.3533 122.58 27.8969C123.292 27.4469 123.891 26.841 124.329 26.1259C124.776 25.401 125 24.5155 125 23.4689C125 22.4758 124.803 21.6708 124.41 21.0535C124.017 20.4364 123.502 19.9264 122.865 19.5238C122.227 19.1213 121.509 18.806 120.709 18.5779C119.904 18.3485 119.097 18.127 118.288 17.9135C117.293 17.655 116.296 17.4001 115.299 17.1488C114.444 16.934 113.651 16.6791 112.919 16.3839C112.214 16.0886 111.651 15.666 111.231 15.1159C110.811 14.5657 110.6 13.7808 110.6 12.7609C110.6 12.5732 110.655 12.2376 110.763 11.7546C110.872 11.2714 111.129 10.7816 111.536 10.2851C111.943 9.78886 112.566 9.34599 113.407 8.95675C114.248 8.56776 115.4 8.37302 116.865 8.37302C117.868 8.37302 118.783 8.48054 119.61 8.69509C120.438 8.90988 121.149 9.252 121.746 9.72169C122.343 10.1914 122.803 10.7884 123.129 11.513C123.454 12.2378 123.617 13.1233 123.617 14.17H123.617Z" fill="#454545"/>
</svg>
